<svg xmlns="http://www.w3.org/2000/svg" xmlns:xlink="http://www.w3.org/1999/xlink" width="400" zoomAndPan="magnify" viewBox="0 0 300 187.499995" height="250" preserveAspectRatio="xMidYMid meet" version="1.0"><defs><clipPath id="aaa1a198db"><path d="M 0.398438 0 L 190 0 L 190 150 L 0.398438 150 Z M 0.398438 0 " clip-rule="nonzero"/></clipPath><clipPath id="3474a4e9e0"><path d="M 40.066406 -39.664062 L 189.542969 109.8125 L 149.875 149.480469 L 0.398438 0.00390625 Z M 40.066406 -39.664062 " clip-rule="nonzero"/></clipPath><clipPath id="2094d976da"><path d="M 0.398438 0 L 189.734375 0 L 189.734375 149.601562 L 0.398438 149.601562 Z M 0.398438 0 " clip-rule="nonzero"/></clipPath><clipPath id="e1cc4c9aed"><path d="M 40.066406 -39.664062 L 189.542969 109.8125 L 149.875 149.480469 L 0.398438 0.00390625 Z M 40.066406 -39.664062 " clip-rule="nonzero"/></clipPath><clipPath id="abc683fdc9"><rect x="0" width="190" y="0" height="150"/></clipPath><clipPath id="b3b9a0cf9e"><path d="M 110 0 L 299.601562 0 L 299.601562 150 L 110 150 Z M 110 0 " clip-rule="nonzero"/></clipPath><clipPath id="3461d70455"><path d="M 110.453125 109.804688 L 259.929688 -39.671875 L 299.601562 -0.00390625 L 150.125 149.472656 Z M 110.453125 109.804688 " clip-rule="nonzero"/></clipPath><clipPath id="c6f957eace"><path d="M 0.265625 0 L 189.601562 0 L 189.601562 149.601562 L 0.265625 149.601562 Z M 0.265625 0 " clip-rule="nonzero"/></clipPath><clipPath id="1578b33d8f"><path d="M 0.453125 109.804688 L 149.929688 -39.671875 L 189.601562 -0.00390625 L 40.125 149.472656 Z M 0.453125 109.804688 " clip-rule="nonzero"/></clipPath><clipPath id="a466aa65e9"><rect x="0" width="190" y="0" height="150"/></clipPath><clipPath id="79327d16d1"><path d="M 37.96875 0 L 76.117188 0 L 76.117188 187 L 37.96875 187 Z M 37.96875 0 " clip-rule="nonzero"/></clipPath><clipPath id="a4e41a7334"><path d="M 0.96875 0 L 39.117188 0 L 39.117188 187 L 0.96875 187 Z M 0.96875 0 " clip-rule="nonzero"/></clipPath><clipPath id="1716298e97"><rect x="0" width="40" y="0" height="187"/></clipPath><clipPath id="e8c436644a"><path d="M 130.921875 85.421875 L 169.070312 85.421875 L 169.070312 187 L 130.921875 187 Z M 130.921875 85.421875 " clip-rule="nonzero"/></clipPath><clipPath id="81fc2e5ddc"><path d="M 0.921875 0.421875 L 39.070312 0.421875 L 39.070312 102 L 0.921875 102 Z M 0.921875 0.421875 " clip-rule="nonzero"/></clipPath><clipPath id="e591ddff6c"><rect x="0" width="40" y="0" height="102"/></clipPath><clipPath id="edacaf4ef0"><path d="M 223.597656 0 L 261.746094 0 L 261.746094 187 L 223.597656 187 Z M 223.597656 0 " clip-rule="nonzero"/></clipPath><clipPath id="51b63ebcbc"><path d="M 0.597656 0 L 38.746094 0 L 38.746094 187 L 0.597656 187 Z M 0.597656 0 " clip-rule="nonzero"/></clipPath><clipPath id="e9e5317d30"><rect x="0" width="39" y="0" height="187"/></clipPath></defs><g clip-path="url(#aaa1a198db)"><g clip-path="url(#3474a4e9e0)"><g transform="matrix(1, 0, 0, 1, 0.000000000000000056, 0)"><g clip-path="url(#abc683fdc9)"><g clip-path="url(#2094d976da)"><g clip-path="url(#e1cc4c9aed)"><path fill="#ffffff" d="M 40.066406 -39.664062 L 189.601562 109.867188 L 149.929688 149.535156 L 0.398438 0.00390625 Z M 40.066406 -39.664062 " fill-opacity="1" fill-rule="nonzero"/></g></g></g></g></g></g><g clip-path="url(#b3b9a0cf9e)"><g clip-path="url(#3461d70455)"><g transform="matrix(1, 0, 0, 1, 110, 0)"><g clip-path="url(#a466aa65e9)"><g clip-path="url(#c6f957eace)"><g clip-path="url(#1578b33d8f)"><path fill="#ffffff" d="M 0.453125 109.804688 L 149.988281 -39.730469 L 189.65625 -0.0625 L 40.125 149.472656 Z M 0.453125 109.804688 " fill-opacity="1" fill-rule="nonzero"/></g></g></g></g></g></g><g clip-path="url(#79327d16d1)"><g transform="matrix(1, 0, 0, 1, 37, 0)"><g clip-path="url(#1716298e97)"><g clip-path="url(#a4e41a7334)"><path fill="#ffffff" d="M 39.117188 -24.386719 L 39.117188 187.070312 L 0.96875 187.070312 L 0.96875 -24.386719 Z M 39.117188 -24.386719 " fill-opacity="1" fill-rule="nonzero"/></g></g></g></g><g clip-path="url(#e8c436644a)"><g transform="matrix(1, 0, 0, 1, 130, 85)"><g clip-path="url(#e591ddff6c)"><g clip-path="url(#81fc2e5ddc)"><path fill="#ffffff" d="M 39.070312 0.421875 L 39.070312 102.050781 L 0.921875 102.050781 L 0.921875 0.421875 Z M 39.070312 0.421875 " fill-opacity="1" fill-rule="nonzero"/></g></g></g></g><g clip-path="url(#edacaf4ef0)"><g transform="matrix(1, 0, 0, 1, 223, 0)"><g clip-path="url(#e9e5317d30)"><g clip-path="url(#51b63ebcbc)"><path fill="#ffffff" d="M 38.746094 -24.386719 L 38.746094 187.070312 L 0.597656 187.070312 L 0.597656 -24.386719 Z M 38.746094 -24.386719 " fill-opacity="1" fill-rule="nonzero"/></g></g></g></g></svg>