<?xml version="1.0" encoding="UTF-8"?>
<svg data-name="Capa 2" viewBox="0 0 17.78 6.32" xmlns="http://www.w3.org/2000/svg">
<defs>
<style>.cls-1, .cls-2 {
        fill: #706f6f;
      }

      .cls-2 {
        fill-rule: evenodd;
      }</style>
</defs>
<g data-name="Layer 1">
<path class="cls-2" d="m6.96 0.5h3.71c0.64 0.06 1.15 0.39 1.64 0.76-0.05 0.01-0.1 0.04-0.14 0.08-0.13 0.13-0.19 0.47-0.2 0.66h-5.23l0.22-1.51z"/>
<path class="cls-1" d="m1.74,5.28c-.73,0-1.6-.34-1.63-.35l-.11-.04v-1.4l.05-.05c.07-.07.22-.26.22-.39v-.27c.02-.19.04-.41.04-.6,0-.14.21-.38.42-.46h.06s5.03,0,5.03,0l.25-1.3C6.12.17,6.33,0,6.57,0h4.11c.95.08,1.53.55,2.14,1.04.28.23.57.46.91.67.15.01.37.02.62.03,1.52.06,2.9.17,3.06.84l.15,1.22c.09.06.22.18.22.37v.52c0,.14-.02.29-.14.37-.24.15-.52.21-1.08.21h-.31v-.33h.31c.48,0,.71-.04.89-.15,0,0,0-.03,0-.1v-.52s-.08-.1-.11-.12l-.08-.04-.17-1.37c-.11-.47-1.89-.53-2.74-.57-.29-.01-.53-.02-.68-.04l-.07-.02c-.38-.23-.68-.48-.98-.72-.59-.48-1.1-.89-1.94-.97h-4.1c-.08,0-.15.06-.16.14l-.31,1.57H.83c-.09.04-.17.15-.19.18,0,.16-.01.38-.02.57v.26c-.01.23-.19.46-.29.57v1.03c.26.09.92.3,1.46.29h.45s0,.33,0,.33h-.44s-.04,0-.06,0Zm12.17,0H4.55v-.33h9.35v.33Z"/>
<polygon class="cls-2" points="17.4 4.04 17.27 2.76 16.91 2.76 16.91 4.04"/>
<rect class="cls-1" x="9.81" y="2.3" width=".77" height=".22"/>
<path class="cls-2" d="m.44,3.04h.15c.34,0,.79-.26.8-.55v-.27H.48c0,.28-.03.61-.04.82Z"/>
<path class="cls-2" d="m12.29,1.46h0c-.09.09-.14.43-.15.55,0,.05.01.09.05.12.03.03.07.05.12.05h.37c.39,0-.07-.71-.21-.76-.06-.02-.12,0-.17.04Z"/>
<polygon class="cls-2" points="5.93 4.2 5.93 4.48 12.72 4.48"/>
<path class="cls-1" d="m13.19,5.11h-.22v-.49c0-1.16.95-2.11,2.11-2.11s2.11.95,2.11,2.11v.46h-.22v-.46c0-1.04-.85-1.89-1.89-1.89s-1.89.85-1.89,1.89v.49Z"/>
<circle class="cls-1" cx="15.08" cy="4.91" r=".36"/>
<path class="cls-1" d="m5.51,5.11h-.22v-.49c0-1.04-.85-1.89-1.89-1.89s-1.89.85-1.89,1.89v.45h-.22v-.45c0-1.16.95-2.11,2.11-2.11s2.11.95,2.11,2.11v.49Z"/>
<path class="cls-2" d="m15.08,3.01h0c.44,0,.84.18,1.14.47h0c.29.29.47.69.47,1.14v.65h-.25c-.07.28-.23.52-.45.71-.25.21-.56.34-.91.34s-.66-.13-.91-.34h0c-.21-.18-.37-.43-.45-.71h-.25v-.65c0-.44.18-.84.47-1.14h0c.29-.29.69-.47,1.14-.47h0Zm0,.96c-.52,0-.94.42-.94.94s.42.94.94.94.94-.42.94-.94-.42-.94-.94-.94h0Zm-11.68,0c-.52,0-.94.42-.94.94s.42.94.94.94.94-.42.94-.94-.42-.94-.94-.94h0Zm0-.96h0c.44,0,.84.18,1.14.47h0c.29.29.47.69.47,1.14v.65h-.25c-.07.28-.23.52-.45.71-.25.21-.56.34-.91.34s-.66-.13-.91-.34c-.21-.18-.37-.43-.45-.71h-.25v-.65c0-.44.18-.84.47-1.14.29-.29.69-.47,1.14-.47Z"/>
<path class="cls-2" d="m3.4,4.55c-.2,0-.36.16-.36.36s.16.36.36.36.36-.16.36-.36-.16-.36-.36-.36Z"/>
<rect class="cls-1" x="6.8" y="2.3" width=".77" height=".22"/>
</g>
</svg>
