<?xml version="1.0" encoding="UTF-8"?>
<svg data-name="Capa 2" viewBox="0 0 14.77 5.21" xmlns="http://www.w3.org/2000/svg">
<defs>
<style>.cls-1, .cls-2 {
        fill: #706f6f;
      }

      .cls-2 {
        fill-rule: evenodd;
      }</style>
</defs>
<g data-name="Layer 1">
<path class="cls-2" d="m4.19 1.7c-0.59 0-0.89-0.02-1.22-0.14 0.57-0.41 1.43-1.06 2.2-1.06h1.84c0.87 0 1.62 0.31 2.34 0.72-0.12 0.12-0.18 0.26-0.19 0.43v0.06h-4.97z"/>
<path class="cls-1" d="m1.63,4.53c-.74,0-1.52-.5-1.55-.52l-.08-.05v-1.13l.02-.04c.04-.06.14-.26.14-.42l.04-1.17,1.6-.1.06-.03C2.65.7,4.12,0,4.95,0h2.37c.44.04.81.1,1.11.2.63.19,2.04,1.04,2.28,1.18.22.03,1.4.17,2.37.42,1.15.29,1.53.75,1.58.95l.1,1.64-.14.03c-.27.06-.49.1-1.08.1h-.58v-.33h.58c.45,0,.67-.02.87-.06v-.09s-.07-1.24-.07-1.24c-.02-.05-.34-.42-1.33-.68-1.05-.27-2.35-.41-2.36-.41l-.07-.02s-1.6-.97-2.23-1.17c-.29-.09-.63-.15-1.03-.19h-2.36c-.76,0-2.18.68-2.94,1.04l-.15.06-1.33.09-.03.87c0,.22-.11.45-.16.54v.85c.21.12.81.43,1.34.42h.47s0,.33,0,.33h-.46s-.03,0-.04,0Zm9.51,0H3.96v-.33h7.19v.33Z"/>
<path class="cls-2" d="m.34,2.21c0,.16-.01.34-.01.44h.21c.27,0,.63-.21.64-.44v-.22H.33v.22h0Z"/>
<path class="cls-2" d="m13.4,2.61l.32.57c.1-.06.26-.1.38-.1h0c.17,0,.33,0,.5,0v-.03c-.02-.06-.18-.33-.34-.45h-.86Z"/>
<rect class="cls-1" x="7.05" y="2.15" width=".77" height=".22"/>
<rect class="cls-1" x="3.63" y="2.15" width=".77" height=".22"/>
<polygon class="cls-2" points="5.06 3.53 5.06 3.81 10.28 3.81"/>
<rect class="cls-1" x="14.22" y="3.65" width=".37" height=".22"/>
<rect class="cls-1" x="13.88" y="3.58" width=".4" height=".37" rx=".12" ry=".12"/>
<path class="cls-2" d="m9.47,1.32h0c-.09.09-.14.2-.15.33,0,.05.01.09.05.12s.07.05.12.05h.37c.06,0,.11-.03.14-.08.03-.05.03-.11,0-.16-.07-.11-.18-.23-.35-.29-.06-.02-.12,0-.17.04Z"/>
<path class="cls-1" d="m9.77,1.98s-.07-.02-.09-.05l-.21-.28s-.03-.12.02-.15c.05-.04.12-.03.15.02l.21.28s.03.12-.02.16c-.02.01-.04.02-.07.02Z"/>
<path class="cls-2" d="m.26,3.93v.47h1.22v-.04c-.51-.05-1.02-.31-1.22-.43Z"/>
<path class="cls-2" d="m3.05,2.53h0c.39,0,.74.16,1,.42h0s0,0,0,0c.26.26.42.61.42,1v.59h-.53c.09-.15.14-.33.14-.52,0-.57-.46-1.03-1.03-1.03s-1.03.46-1.03,1.03c0,.19.05.37.14.52h-.53v-.59c0-.39.16-.74.42-1h0s0,0,0,0c.26-.26.61-.42,1-.42Z"/>
<path class="cls-2" d="m2.2,3.17c.22-.22.52-.35.85-.35s.63.13.85.35h0c.22.22.35.52.35.85s-.13.63-.35.85h0c-.22.22-.52.35-.85.35s-.63-.13-.85-.35-.35-.52-.35-.85.13-.63.35-.85h0Zm.85,0c-.46,0-.84.38-.84.84s.38.84.84.84.84-.38.84-.84-.38-.84-.84-.84Z"/>
<path class="cls-2" d="m3.05,3.71c-.17,0-.3.14-.3.3s.14.3.3.3.3-.14.3-.3-.14-.3-.3-.3Z"/>
<path class="cls-2" d="m12.05,2.53h0c.39,0,.74.16,1,.42h0s0,0,0,0c.26.26.42.61.42,1v.59h-.53c.09-.15.14-.33.14-.52,0-.57-.46-1.03-1.03-1.03s-1.03.46-1.03,1.03c0,.19.05.37.14.52h-.53v-.59c0-.39.16-.74.42-1h0s0,0,0,0c.26-.26.61-.42,1-.42Z"/>
<path class="cls-2" d="m11.2,3.17c.22-.22.52-.35.85-.35s.63.13.85.35h0c.22.22.35.52.35.85s-.13.63-.35.85h0c-.22.22-.52.35-.85.35s-.63-.13-.85-.35-.35-.52-.35-.85.13-.63.35-.85h0Zm.85,0c-.46,0-.84.38-.84.84s.38.84.84.84.84-.38.84-.84-.38-.84-.84-.84Z"/>
<path class="cls-2" d="m12.05,3.71c-.17,0-.3.14-.3.3s.14.3.3.3.3-.14.3-.3-.14-.3-.3-.3Z"/>
</g>
</svg>
