<?xml version="1.0" encoding="UTF-8"?>
<svg data-name="Capa 2" viewBox="0 0 15.21 6.2" xmlns="http://www.w3.org/2000/svg">
<defs>
<style>.cls-1, .cls-2 {
        fill: #706f6f;
      }

      .cls-2 {
        fill-rule: evenodd;
      }</style>
</defs>
<g data-name="Layer 1">
<path class="cls-2" d="m4.16.5h3.35c.83.08,1.65.54,2.39,1.01-.02.01-.04.03-.06.04h0c-.12.12-.19.27-.2.44,0,.01,0,.03,0,.04l-7.63-.22c.8-.65,1.29-1.33,2.14-1.33Z"/>
<path class="cls-1" d="m1.22,5.15C.47,5.15.06,4.66.04,4.64l-.04-.05v-.99l.02-.04c.04-.06.14-.26.14-.42,0-.14.01-.37.02-.59v-.39c.02-.26.96-1.28,1.28-1.57l-.05-.34.15-.03C2.21.08,3.52,0,4.41,0h3.12c1.17.1,2.26.79,3.22,1.4.17.11.34.21.5.31.08,0,.18.02.29.03,1.81.17,3.51.42,3.67,1.12v2.18s-.13.03-.13.03c-.24.05-.48.08-.99.08h-.5v-.33h.5c.41,0,.63-.02.79-.05v-1.87c-.08-.34-1.21-.63-3.37-.83-.13-.01-.25-.02-.33-.03l-.07-.02c-.18-.11-.36-.22-.54-.34-.98-.62-1.99-1.26-3.06-1.35h-3.1c-.8,0-1.96.07-2.63.19l.03.23-.09.06c-.15.1-1.14,1.2-1.2,1.4v.36c-.01.22-.02.45-.03.59,0,.22-.11.45-.16.54v.77c.1.1.43.36.93.35h.23s0,.33,0,.33h-.22s-.03,0-.05,0Zm9.91,0h-7.08v-.33h7.08v.33Z"/>
<path class="cls-2" d="m9.96,1.68h0c-.09.09-.14.2-.15.33,0,.05.01.09.05.12.03.03.07.05.12.05h.37c.06,0,.11-.03.14-.08.03-.05.03-.11,0-.16-.07-.11-.18-.23-.35-.29-.06-.02-.12,0-.17.04Z"/>
<path class="cls-1" d="m10.26,2.34s-.07-.02-.09-.05l-.21-.28s-.03-.12.02-.16c.05-.04.12-.02.16.02l.21.28s.03.12-.02.16c-.02.01-.04.02-.07.02Z"/>
<path class="cls-2" d="m0.34 2.91h0.21c0.27 0 0.63-0.21 0.64-0.44v-0.22h-0.84v0.66z"/>
<path class="cls-2" d="m13.89,2.73l.39.7c.13-.07.32-.12.46-.12h0c.1,0,.2,0,.3,0,0-.28.03-.31-.22-.5l-.94-.08Z"/>
<rect class="cls-1" x="6.9" y="2.43" width=".77" height=".22"/>
<rect class="cls-1" x="3.46" y="2.34" width=".77" height=".22"/>
<polygon class="cls-2" points="4.94 4.07 4.94 4.36 10.16 4.36"/>
<path class="cls-2" d="m14.97,3.69h-.59c-.12.12-.13.29-.13.44h.72v-.44Z"/>
<path class="cls-2" d="m14.53,4.68c-.04-.1-.05-.22-.05-.32h.49v.32h-.45Z"/>
<path class="cls-2" d="m2.05.85L.49,2.2l.03-.3c.31-.43,1-1.17,1.12-1.24l.41.19Z"/>
<path class="cls-2" d="m1.86,5.86c-.21-.18-.37-.43-.45-.71h-.25v-.65c0-.44.18-.84.47-1.14.29-.29.69-.47,1.14-.47h0c.44,0,.84.18,1.14.47h0c.29.29.47.69.47,1.14v.65h-.25c-.07.28-.23.52-.45.71-.25.21-.56.34-.91.34s-.66-.13-.91-.34h0Zm10.5-2.01c-.52,0-.94.42-.94.94s.42.94.94.94.94-.42.94-.94-.42-.94-.94-.94h0Zm-9.59,0c-.52,0-.94.42-.94.94s.42.94.94.94.94-.42.94-.94-.42-.94-.94-.94h0Zm9.59-.96h0c.44,0,.84.18,1.14.47h0c.29.29.47.69.47,1.14v.65h-.25c-.07.28-.23.52-.45.71-.25.21-.56.34-.91.34s-.66-.13-.91-.34h0c-.21-.18-.37-.43-.45-.71h-.25v-.65c0-.44.18-.84.47-1.14s.69-.47,1.14-.47h0Zm0,1.53c.2,0,.36.16.36.37s-.16.36-.36.36-.36-.16-.36-.36.16-.37.36-.37h0Zm-9.59,0c-.2,0-.36.16-.36.37s.16.36.36.36.36-.16.36-.36-.16-.37-.36-.37Z"/>
</g>
</svg>
