<?xml version="1.0" encoding="UTF-8"?>
<svg data-name="Capa 2" viewBox="0 0 13.71 5.66" xmlns="http://www.w3.org/2000/svg">
<defs>
<style>.cls-1, .cls-2 {
        fill: #706f6f;
      }

      .cls-2 {
        fill-rule: evenodd;
      }</style>
</defs>
<g data-name="Layer 1">
<path class="cls-2" d="m6.17.53c.26,0,.51.01.77.03.96.05,1.79.66,2.59,1.24-.03.01-.06.03-.09.06h0c-.11.11-.18.25-.18.41,0,.05,0,.09.03.13l-2.65-.16-.46-1.71Z"/>
<path class="cls-2" d="m13.55,3.52c-.38-.21-1.09-.59-1.19-.7-.07-.07-.1-.24-.05-.41.55.11,1.03.28,1.1.6l.14.5h0Z"/>
<rect class="cls-1" x="7.03" y="2.58" width=".22" height=".48"/>
<rect class="cls-1" x="6.08" y="2.58" width=".22" height=".48"/>
<rect class="cls-1" x="1.61" y="2.29" width="2.35" height=".22"/>
<path class="cls-2" d="m.29,3.03c.3-.07.61-.28.62-.53v-1.3h-.45c-.1.61-.12,1.32-.14,1.61,0,.07-.01.15-.04.22Z"/>
<path class="cls-2" d="m9.51,1.94h0c-.09.09-.14.2-.15.33,0,.05.01.09.05.12.03.03.07.05.12.05h.37c.06,0,.11-.03.14-.08.03-.05.03-.11,0-.16-.07-.11-.18-.23-.35-.29-.06-.02-.12,0-.17.04Z"/>
<path class="cls-1" d="m9.81,2.6s-.07-.02-.09-.05l-.21-.28s-.03-.12.02-.15c.05-.04.12-.03.16.02l.21.28s.03.12-.02.15c-.02.01-.04.02-.07.02Z"/>
<path class="cls-2" d="m13.12,3.94h-.05c-.07,0-.12.05-.12.12v.13c0,.07.05.12.12.12h.05s.09-.03.11-.07h.33v-.22h-.33s-.06-.07-.11-.07Z"/>
<rect class="cls-1" x="4.58" y="3.88" width="4.96" height=".33"/>
<path class="cls-2" d="m13.12,3.94h-.05c-.07,0-.12.05-.12.12v.13c0,.07.05.12.12.12h.05s.09-.03.11-.07h.33v-.22h-.33s-.06-.07-.11-.07Z"/>
<path class="cls-1" d="m.86,4.98c-.34,0-.7-.25-.85-.6v-.07s-.01-1.04-.01-1.04l.02-.04s.04-.06.07-.14c.04-.11.07-.2.07-.28v-.11c.02-.32.05-.91.13-1.45C.42.39.62,0,.94,0h6.02c.86.04,1.55.43,2.05.76.26.17.51.35.76.54.32.23.65.48.99.69.19.05.47.09.77.13.25.04.52.07.77.12.54.11,1.17.28,1.28.74.14.51.14.57.12,1.13l-.02.74-.2.05c-.09.02-.17.04-.28.06-.15.02-.34.03-.62.03h-.26v-.33h.26c.26,0,.44,0,.57-.03.08-.01.14-.02.2-.04v-.47c.03-.54.03-.58-.1-1.05-.05-.21-.39-.37-1.02-.49-.25-.05-.51-.09-.75-.12-.32-.05-.62-.09-.84-.15l-.04-.02c-.36-.22-.71-.47-1.04-.71-.25-.18-.49-.36-.75-.53-.7-.46-1.26-.67-1.87-.7H.94s-.19.04-.32.97c-.08.52-.1,1.11-.12,1.42v.1c0,.11-.04.25-.1.4-.02.06-.05.11-.07.14v.91c.11.22.34.38.55.37h.27v.33h-.26s-.01,0-.02,0Zm9.71,0H3.22v-.33h7.35v.33Z"/>
<path class="cls-2" d="m10.76,5.44c-.17-.12-.3-.28-.39-.47h-.33v-.59c0-.39.16-.74.42-1h0s0,0,0,0c.26-.26.61-.42,1-.42h0c.39,0,.74.16,1,.42h0s0,0,0,0c.26.26.42.61.42,1v.59h-.33c-.09.19-.23.35-.39.47-.2.14-.43.22-.69.22s-.49-.08-.69-.22h0Zm.69-1.82c-.46,0-.84.38-.84.84s.38.84.84.84.84-.38.84-.84-.38-.84-.84-.84h0Zm-9.26,0c-.46,0-.84.38-.84.84s.38.84.84.84.84-.38.84-.84-.38-.84-.84-.84h0Zm0-.65h0c.39,0,.74.16,1,.42h0s0,0,0,0c.26.26.42.61.42,1v.59h-.33c-.09.19-.23.35-.39.47-.2.14-.43.22-.69.22s-.49-.08-.69-.22c-.17-.12-.3-.28-.39-.47h-.33v-.59c0-.39.16-.74.42-1h0s0,0,0,0c.26-.26.61-.42,1-.42Z"/>
<path class="cls-2" d="m11.45,4.16c-.17,0-.3.14-.3.3s.14.3.3.3.3-.14.3-.3-.14-.3-.3-.3Z"/>
<path class="cls-2" d="m2.18,4.16c-.17,0-.3.14-.3.3s.14.3.3.3.3-.14.3-.3-.14-.3-.3-.3Z"/>
</g>
</svg>
